<svg width="60" height="60" viewBox="0 0 60 60" fill="none" xmlns="http://www.w3.org/2000/svg">
<path fill-rule="evenodd" clip-rule="evenodd" d="M30.0004 20C24.4777 20 20.0005 24.4771 20.0005 30C20.0005 35.5228 24.4777 40 30.0004 40C35.5234 40 40.0004 35.5228 40.0004 30C40.0004 24.4771 35.5234 20 30.0004 20ZM25.0004 30C25.0004 27.2385 27.2391 25 30.0004 25C32.7619 25 35.0004 27.2385 35.0004 30C35.0004 32.7615 32.7619 35 30.0004 35C27.2391 35 25.0004 32.7615 25.0004 30Z" fill="black"/>
<path fill-rule="evenodd" clip-rule="evenodd" d="M28.2167 1.25C24.7146 1.25 21.6152 3.66863 20.9293 7.14013L20.7316 8.14055C20.2622 10.516 17.6549 12.0765 15.1128 11.2203L14.1206 10.8862C10.8061 9.7699 7.09682 11.0742 5.2959 14.0983L3.5123 17.0934C1.69432 20.1461 2.38587 24.0122 5.09817 26.2855L5.89285 26.9515C7.82347 28.5697 7.82347 31.4303 5.89285 33.0485L5.09817 33.7145C2.38587 35.9878 1.69432 39.8537 3.5123 42.9065L5.29582 45.9015C7.0968 48.9257 10.8062 50.23 14.1208 49.1138L15.1126 48.7795C17.6548 47.9233 20.2622 49.4837 20.7316 51.8592L20.9293 52.8597C21.6153 56.3312 24.7146 58.75 28.2167 58.75H31.784C35.2865 58.75 38.3857 56.3313 39.0717 52.8595L39.2692 51.8595C39.7385 49.484 42.346 47.9233 44.8882 48.7795L45.8802 49.1138C49.1947 50.23 52.9042 48.9257 54.7052 45.9015L56.4888 42.9068C58.3068 39.854 57.615 35.9878 54.9027 33.7145L54.108 33.0485C52.1772 31.4305 52.1772 28.5695 54.108 26.9515L54.9027 26.2855C57.615 24.0122 58.3068 20.1461 56.4888 17.0933L54.7052 14.0983C52.9042 11.0742 49.195 9.76988 45.8805 10.8861L44.888 11.2204C42.346 12.0765 39.7385 10.5159 39.2692 8.14043L39.0717 7.1404C38.3857 3.66878 35.2865 1.25 31.784 1.25H28.2167ZM25.8345 8.10938C26.0372 7.08335 26.9957 6.25 28.2167 6.25H31.784C33.0052 6.25 33.9637 7.0834 34.1665 8.10945L34.364 9.10948C35.4477 14.5953 41.2272 17.7292 46.4837 15.9588L47.4762 15.6246C48.6237 15.2382 49.8485 15.7149 50.4092 16.6566L52.1927 19.6516C52.7365 20.5647 52.552 21.7318 51.691 22.4534L50.8965 23.1193C46.5812 26.7358 46.5812 33.2643 50.8965 36.8808L51.691 37.5465C52.552 38.2683 52.7365 39.4353 52.1927 40.3485L50.4092 43.3432C49.8485 44.285 48.6237 44.7617 47.4762 44.3752L46.484 44.041C41.2272 42.2705 35.4477 45.4045 34.364 50.8905L34.1665 51.8905C33.9637 52.9165 33.0052 53.75 31.784 53.75H28.2167C26.9957 53.75 26.0372 52.9168 25.8345 51.8905L25.6367 50.89C24.5528 45.4043 18.7733 42.2705 13.5166 44.0413L12.5247 44.3752C11.3773 44.7617 10.1526 44.285 9.59177 43.3432L7.80825 40.3482C7.2645 39.4352 7.44897 38.2683 8.30995 37.5465L9.10462 36.8805C13.4195 33.264 13.4195 26.736 9.10462 23.1195L8.30995 22.4534C7.44897 21.7318 7.2645 20.5648 7.80825 19.6517L9.59185 16.6567C10.1526 15.7149 11.3773 15.2382 12.5247 15.6246L13.5169 15.9588C18.7734 17.7292 24.5528 14.5955 25.6367 9.1098L25.8345 8.10938Z" fill="black"/>
</svg>
